<svg id="Layer_1" data-name="Layer 1" xmlns="http://www.w3.org/2000/svg" viewBox="0 0 164.87 23.68"><defs><style>.cls-1{isolation:isolate;}.cls-2{fill:#3fd0d4;}</style></defs><title>download</title><g id="SAIDALSHARQAWI" class="cls-1"><g class="cls-1"><path d="M9.27,22a1.62,1.62,0,0,1-.46,1.2,1.55,1.55,0,0,1-1.19.47H1.69A1.61,1.61,0,0,1,0,22V16H2.09v5.8H7.18V16.15L.68,8.29A2.72,2.72,0,0,1,0,6.5V1.73A1.63,1.63,0,0,1,.47.53,1.67,1.67,0,0,1,1.69.06H7.62A1.59,1.59,0,0,1,8.81.53a1.62,1.62,0,0,1,.46,1.2V7.21H7.18V1.91H2.09v5l6.54,7.86a2.69,2.69,0,0,1,.64,1.76Z"/><path d="M22.48,23.62H20.4l-.83-5.24H14.89l-.83,5.24H12v-.06L16.24,0h2.07ZM19.3,16.53,17.24,3.76,15.16,16.53Z"/><path d="M27.52,23.62H25.43V.06h2.09Z"/><path d="M41.16,19.36a4.06,4.06,0,0,1-1.23,3.06,4.23,4.23,0,0,1-3.09,1.2H31.45V.06h5.39a4.24,4.24,0,0,1,3.1,1.2,4.11,4.11,0,0,1,1.22,3.06Zm-2.09-.21V4.5a2.52,2.52,0,0,0-.73-1.87,2.59,2.59,0,0,0-1.89-.72H33.54V21.77h2.79a2.8,2.8,0,0,0,2-.7A2.51,2.51,0,0,0,39.07,19.15Z"/></g><g class="cls-1"><path class="cls-2" d="M54.33,23.62H52.26l-.83-5.24H46.75l-.83,5.24h-2v-.06L48.1,0h2.06Zm-3.17-7.09L49.1,3.76,47,16.53Z"/><path class="cls-2" d="M64.69,23.62H57.16V.06h2.1V21.77h5.43Z"/><path class="cls-2" d="M76.74,22a1.66,1.66,0,0,1-.46,1.2,1.59,1.59,0,0,1-1.2.47H69.15A1.63,1.63,0,0,1,67.46,22V16h2.1v5.8h5.08V16.15l-6.5-7.86a2.72,2.72,0,0,1-.68-1.79V1.73a1.6,1.6,0,0,1,.48-1.2A1.65,1.65,0,0,1,69.15.06h5.93a1.63,1.63,0,0,1,1.2.47,1.66,1.66,0,0,1,.46,1.2V7.21h-2.1V1.91H69.56v5l6.53,7.86a2.7,2.7,0,0,1,.65,1.76Z"/><path class="cls-2" d="M90.3,23.62H88.21V12.3H82.53V23.62H80.44V.06h2.09V10.42h5.68V.06H90.3Z"/><path class="cls-2" d="M103.56,23.62h-2.07l-.83-5.24H96l-.83,5.24h-2v-.06L97.33,0h2.06Zm-3.17-7.09L98.33,3.76,96.25,16.53Z"/><path class="cls-2" d="M116.42,23.62h-2.2L109.84,11l.29-.42h3.73V1.91h-5.37V23.62H106.4V.06h7.88a1.64,1.64,0,0,1,1.21.47,1.62,1.62,0,0,1,.46,1.2v8.94q0,1.71-2.28,1.71l-.67,0-.63,0Q114.41,18,116.42,23.62Z"/><path class="cls-2" d="M131.12,23.65h-.18l-1.56-1.26a1.42,1.42,0,0,1-1.53,1.23h-6.63a1.59,1.59,0,0,1-1.2-.47,1.63,1.63,0,0,1-.47-1.2V1.73A1.61,1.61,0,0,1,121.22.06h6.63a1.63,1.63,0,0,1,1.2.47,1.65,1.65,0,0,1,.45,1.2V20.29l1.62,1.3Zm-3.71-1.88v-.92l-2.5-2.08V16.71h.2l2.3,1.91V1.91h-5.76V21.77Z"/><path class="cls-2" d="M142.93,23.62h-2.07L140,18.38h-4.68l-.83,5.24h-2v-.06L136.7,0h2.06Zm-3.17-7.09L137.69,3.76l-2.07,12.77Z"/><path class="cls-2" d="M159.86.06l-3.21,23.62H155L152.39,5.92c0-.31,0-.78-.06-1.39,0,.32,0,.78-.06,1.39l-2.56,17.76H148L144.8.06h2.08l2,17q0,.57.06,1.68,0-.57.06-1.68l2.44-17h1.79l2.42,17c0,.38,0,.94.07,1.68,0-.38,0-.94.07-1.68l2-17Z"/><path class="cls-2" d="M164.87,23.62h-2.09V.06h2.09Z"/></g></g></svg>